<?xml version="1.0" encoding="utf-8"?>
<svg xmlns="http://www.w3.org/2000/svg" viewBox="0 0 500 500" xmlns:bx="https://boxy-svg.com" width="500px" height="500px"><rect x="10" y="10" width="480" height="480" style="fill: rgb(15, 11, 11);" rx="100" ry="100"/><g transform="matrix(1, 0, 0, 1, -18.297012, -38.517006)"><path d="M 130.894 325.217 Q 130.894 313.217 139.294 304.817 Q 147.694 296.417 159.694 296.417 Q 171.994 296.417 180.394 304.817 Q 188.794 313.217 188.794 325.217 Q 188.794 337.517 180.394 345.917 Q 171.994 354.317 159.694 354.317 Q 147.694 354.317 139.294 345.917 Q 130.894 337.517 130.894 325.217 Z" style="text-wrap-mode: nowrap; fill: rgb(119, 119, 119);"/><path d="M 354.1 187.817 Q 411.7 187.817 411.7 270.917 Q 411.7 308.417 395.8 331.367 Q 379.9 354.317 350.5 354.317 Q 325.6 354.317 310.3 336.917 L 310.3 411.317 L 276.7 415.217 L 276.7 192.017 L 305.8 192.017 L 307.9 212.417 Q 316.9 200.417 328.75 194.117 Q 340.6 187.817 354.1 187.817 Z M 344.8 213.617 Q 334.3 213.617 325.6 219.917 Q 316.9 226.217 310.3 236.417 L 310.3 310.517 Q 322 328.217 341.5 328.217 Q 358.9 328.217 367.6 314.417 Q 376.3 300.617 376.3 271.217 Q 376.3 240.917 368.5 227.267 Q 360.7 213.617 344.8 213.617 Z" style="fill: rgb(255, 62, 0); text-wrap-mode: nowrap;"/></g><defs/></svg>